<svg viewBox="0 0 1022.219 1066.744" xmlns="http://www.w3.org/2000/svg"><path d="M425.183 786.216c71.553 0 129.558 58.005 129.558 129.558s-58.004 129.558-129.557 129.558-129.558-58.005-129.558-129.558 58.005-129.558 129.558-129.558zm0 170.074c22.376 0 40.515-18.14 40.515-40.515s-18.14-40.515-40.515-40.515c-22.376 0-40.515 18.14-40.515 40.515 0 22.376 18.14 40.515 40.515 40.515zm382.44-170.074c71.554 0 129.56 58.005 129.56 129.558s-58.006 129.558-129.56 129.558c-71.552 0-129.557-58.005-129.557-129.558s58.005-129.558 129.558-129.558zm0 170.074c22.377 0 40.516-18.14 40.516-40.515S830 875.26 807.623 875.26c-22.376 0-40.515 18.14-40.515 40.515 0 22.376 18.138 40.515 40.514 40.515zm-.89-81.03h-445.25c-83.233 0-150.706-67.473-150.706-150.706 0-69.812 47.468-128.537 111.89-145.66l1.05-.238-125.773-410.4c-10.97-33.842-42.21-57.88-79.066-57.88H0V21.335H119.1c76.43 0 141.19 49.954 163.41 118.994l.338 1.215v.445l159.655 520.904h-80.985c-34.055 0-61.663 27.607-61.663 61.663s27.607 61.663 61.663 61.663h445.217zM926.23 662.89H382.44V573.85h476.65l74.085-259.117v-34.28H297.85v-89.044h724.37v135.79z"/></svg>